<?xml version="1.0" encoding="utf-8"?>
<!-- Generator: Fusion 360, Shaper Origin Export Add-In, Version 1.5.0  -->
<svg enable-background="new 0 0 7 9" height="9cm" shaper:fusionaddin="version:1.5.0" version="1.1" viewBox="0 0 7 9" width="7cm" x="0cm" xml:space="preserve" xmlns="http://www.w3.org/2000/svg" xmlns:shaper="http://www.shapertools.com/namespaces/shaper" xmlns:xlink="http://www.w3.org/1999/xlink" y="0cm"><path d="M0,1 L1,1 1,2 2,2 2,1 3,1 3,8 2,8 2,7 1,7 1,8 0,8 0,9 7,9 7,8 6,8 6,7 5,7 5,8 4,8 4,1 5,1 5,2 6,2 6,1 7,1 7,0 0,0 0,1z" fill="rgb(0,0,0)" shaper:cutDepth="0.01" shaper:pathType="exterior" transform="matrix(1,0,0,-1,-0,9)" vector-effect="non-scaling-stroke" /></svg>